# xmcd CD database file
#
# Track frame offsets:
#	150
#	15950
#	31822
#	50037
#	70725
#	90582
#	109827
#	126527
#	147530
#	164435
#	182240
#	195845
#	215147
#	230947
#	249477
#
# Disc length: 3572 seconds
#
# Revision: 2
# Processed by: cddbd v1.4b41PL1 Copyright (c) Steve Scherf et al.
# Submitted via: Feurio! 1.50.2ß - http://www.feurio.com
#
DISCID=dc0df20f
DTITLE=The Corrs - In Blue
DYEAR=1900
DGENRE=
TTITLE0=Breathless
TTITLE1=Give Me A Reason
TTITLE2=Somebody For Someone
TTITLE3=Say
TTITLE4=All The Love In The World
TTITLE5=Radio
TTITLE6=Irresistible
TTITLE7=One Night
TTITLE8=All In A Day
TTITLE9=At Your Side
TTITLE10=No More Cry
TTITLE11=Rain
TTITLE12=Give It All Up
TTITLE13=Hurt Before
TTITLE14=Rebel Heart
EXTD=
EXTT0=
EXTT1=
EXTT2=
EXTT3=
EXTT4=
EXTT5=
EXTT6=
EXTT7=
EXTT8=
EXTT9=
EXTT10=
EXTT11=
EXTT12=
EXTT13=
EXTT14=
PLAYORDER=
